<svg xmlns="http://www.w3.org/2000/svg" viewBox="0 0 16.88 16.88"><g id="Layer_2" data-name="Layer 2"><g id="nav"><g id="help-icon"><path id="Icon_awesome-question-circle" data-name="Icon awesome-question-circle" d="M16.88,8.44A8.44,8.44,0,1,1,8.44,0,8.44,8.44,0,0,1,16.88,8.44ZM8.67,2.79A4.41,4.41,0,0,0,4.7,5a.41.41,0,0,0,.09.55L6,6.41a.41.41,0,0,0,.57-.08c.61-.77,1-1.21,2-1.21.69,0,1.55.44,1.55,1.12,0,.51-.42.77-1.1,1.15S7.08,8.4,7.08,9.8v.13a.41.41,0,0,0,.41.41h1.9a.41.41,0,0,0,.41-.41v0c0-1,2.83-1,2.83-3.63,0-2-2.05-3.47-4-3.47Zm-.23,8.44A1.57,1.57,0,1,0,10,12.8h0a1.56,1.56,0,0,0-1.56-1.57Z" style="fill:#ccc"/></g></g></g></svg>