<svg xmlns="http://www.w3.org/2000/svg" viewBox="0 0 16.67 15.27"><g id="Layer_2" data-name="Layer 2"><g id="nav"><g id="leaderboards-icon"><rect y="8.86" width="4.49" height="6.41" rx="0.91" style="fill:#ccc"/><rect x="5.77" y="6.94" width="5.13" height="8.34" rx="0.91" style="fill:#ccc"/><rect x="12.19" y="12.07" width="4.49" height="3.21" rx="0.91" style="fill:#ccc"/><path d="M8.3,0l.56,1.71a.25.25,0,0,0,.24.18h1.8L9.45,3a.27.27,0,0,0-.1.29L9.91,5,8.45,3.89a.27.27,0,0,0-.3,0L6.69,5l.56-1.71A.27.27,0,0,0,7.15,3L5.7,1.89H7.5a.25.25,0,0,0,.24-.18Z" style="fill:#ccc"/></g></g></g></svg>