<svg xmlns="http://www.w3.org/2000/svg" viewBox="0 0 119.93 22.12"><g id="Layer_2" data-name="Layer 2"><g id="logo"><path d="M7,7.42h6.49v8.49a18.74,18.74,0,0,1-3,.72,19.12,19.12,0,0,1-2.85.21A7.25,7.25,0,0,1,2,14.66,9.08,9.08,0,0,1,0,8.4,8.26,8.26,0,0,1,2.27,2.22,8.61,8.61,0,0,1,8.56,0a12.2,12.2,0,0,1,4.86,1L12.27,3.79a8.23,8.23,0,0,0-3.73-.9A4.59,4.59,0,0,0,4.93,4.4,5.86,5.86,0,0,0,3.57,8.47a6.51,6.51,0,0,0,1.1,4.07A3.75,3.75,0,0,0,7.84,14a11.21,11.21,0,0,0,2.21-.23V10.31H7Z" style="fill:#ff7885"/><path d="M24.06,3.85a6.18,6.18,0,0,1,1.16.1L25,7.16a3.76,3.76,0,0,0-1-.11,3.63,3.63,0,0,0-2.55.84,3,3,0,0,0-.91,2.35v6.37H17.07V4.09h2.59l.5,2.1h.17A4.66,4.66,0,0,1,21.91,4.5,3.85,3.85,0,0,1,24.06,3.85Z" style="fill:#ff7885"/><path d="M33.16,16.84a6.48,6.48,0,0,1-4.73-1.67,6.32,6.32,0,0,1-1.7-4.73A7,7,0,0,1,28.3,5.57a5.63,5.63,0,0,1,4.35-1.72,5.53,5.53,0,0,1,4.14,1.52,5.72,5.72,0,0,1,1.47,4.17V11.2H30.19a3.32,3.32,0,0,0,.86,2.28,3,3,0,0,0,2.26.81,9.18,9.18,0,0,0,2.14-.23,11,11,0,0,0,2.11-.75V16a8.24,8.24,0,0,1-1.92.67A12.39,12.39,0,0,1,33.16,16.84ZM32.67,6.28A2.16,2.16,0,0,0,31,7a3.2,3.2,0,0,0-.7,2h4.79a2.81,2.81,0,0,0-.66-2A2.23,2.23,0,0,0,32.67,6.28Z" style="fill:#ff7885"/><path d="M49,16.61l-.67-1.7h-.08a5.15,5.15,0,0,1-1.78,1.51,5.74,5.74,0,0,1-2.38.42,3.88,3.88,0,0,1-2.84-1,4,4,0,0,1-1-2.94,3.3,3.3,0,0,1,1.4-2.94,8.12,8.12,0,0,1,4.21-1L48,8.82V8.27a1.71,1.71,0,0,0-2-1.91,9,9,0,0,0-3.53.91L41.38,5a10.22,10.22,0,0,1,4.79-1.13A6,6,0,0,1,50,4.93a4.07,4.07,0,0,1,1.34,3.34v8.34Zm-1-5.8-1.32,0a4.19,4.19,0,0,0-2.22.54,1.68,1.68,0,0,0-.73,1.5c0,1,.55,1.45,1.66,1.45a2.63,2.63,0,0,0,1.9-.69A2.4,2.4,0,0,0,48,11.84Z" style="fill:#ff7885"/><path d="M60.18,14.11a7.5,7.5,0,0,0,2.15-.39v2.55a7.7,7.7,0,0,1-3.14.57,3.82,3.82,0,0,1-3-1,4.48,4.48,0,0,1-.94-3.11v-6H53.63V5.21l1.89-1.14,1-2.65h2.19V4.09h3.5V6.65h-3.5v6a1.34,1.34,0,0,0,.4,1.08A1.65,1.65,0,0,0,60.18,14.11Z" style="fill:#ff7885"/><path d="M71.28,16.61V.24h1.9V14.89h7.23v1.72Z"/><path d="M93.5,10.46A6.76,6.76,0,0,1,92,15.15a5.34,5.34,0,0,1-4.18,1.69,5.47,5.47,0,0,1-2.92-.78,5.06,5.06,0,0,1-2-2.21,7.69,7.69,0,0,1-.7-3.39,6.74,6.74,0,0,1,1.5-4.67,5.3,5.3,0,0,1,4.17-1.68A5.16,5.16,0,0,1,92,5.83,6.68,6.68,0,0,1,93.5,10.46Zm-9.35,0a5.82,5.82,0,0,0,.94,3.59,3.73,3.73,0,0,0,5.54,0,5.8,5.8,0,0,0,1-3.59,5.69,5.69,0,0,0-1-3.55,3.33,3.33,0,0,0-2.8-1.22,3.27,3.27,0,0,0-2.75,1.2A5.76,5.76,0,0,0,84.15,10.46Z"/><path d="M106.81,4.33V5.51l-2.27.27a3.93,3.93,0,0,1,.55,1,3.74,3.74,0,0,1,.25,1.42,3.61,3.61,0,0,1-1.23,2.88,5,5,0,0,1-3.38,1.08,5.56,5.56,0,0,1-1-.09,1.82,1.82,0,0,0-1.19,1.58.81.81,0,0,0,.41.74,3.06,3.06,0,0,0,1.43.24h2.17a4.85,4.85,0,0,1,3.06.84A2.91,2.91,0,0,1,106.65,18a3.47,3.47,0,0,1-1.63,3.1,8.69,8.69,0,0,1-4.77,1.07,6.6,6.6,0,0,1-3.72-.89,3.07,3.07,0,0,1-.59-4.47,3.6,3.6,0,0,1,2-1.11,1.92,1.92,0,0,1-.79-.66,1.78,1.78,0,0,1-.32-1,2,2,0,0,1,.36-1.18,3.73,3.73,0,0,1,1.13-1,3.39,3.39,0,0,1-1.55-1.34,3.89,3.89,0,0,1-.6-2.15A4,4,0,0,1,97.4,5.2a5,5,0,0,1,3.43-1.09,6.54,6.54,0,0,1,1.73.22ZM97,18.67a1.68,1.68,0,0,0,.84,1.52,4.67,4.67,0,0,0,2.41.51,6.66,6.66,0,0,0,3.46-.7,2.13,2.13,0,0,0,1.13-1.9,1.51,1.51,0,0,0-.62-1.38,4.74,4.74,0,0,0-2.32-.39H99.7a2.91,2.91,0,0,0-2,.61A2.15,2.15,0,0,0,97,18.67Zm1-10.4a2.51,2.51,0,0,0,.72,2,2.94,2.94,0,0,0,2,.66c1.82,0,2.72-.88,2.72-2.65a2.43,2.43,0,0,0-2.75-2.76,2.74,2.74,0,0,0-2,.7A2.85,2.85,0,0,0,98,8.27Z"/><path d="M119.93,10.46a6.77,6.77,0,0,1-1.52,4.69,5.32,5.32,0,0,1-4.17,1.69,5.51,5.51,0,0,1-2.93-.78,5.06,5.06,0,0,1-2-2.21,7.83,7.83,0,0,1-.69-3.39,6.74,6.74,0,0,1,1.5-4.67,5.29,5.29,0,0,1,4.16-1.68,5.18,5.18,0,0,1,4.1,1.72A6.73,6.73,0,0,1,119.93,10.46Zm-9.36,0a5.89,5.89,0,0,0,.94,3.59,3.73,3.73,0,0,0,5.54,0,5.8,5.8,0,0,0,1-3.59,5.69,5.69,0,0,0-1-3.55,3.32,3.32,0,0,0-2.79-1.22,3.28,3.28,0,0,0-2.76,1.2A5.76,5.76,0,0,0,110.57,10.46Z"/></g></g></svg>