<svg xmlns="http://www.w3.org/2000/svg" viewBox="0 0 18 16"><g id="Layer_2" data-name="Layer 2"><g id="nav"><path id="map-icon" d="M9,0A3.93,3.93,0,0,0,5.07,3.94c0,1.76,2.57,5,3.55,6.12a.49.49,0,0,0,.7.06l.06-.06c1-1.16,3.55-4.36,3.55-6.12A3.93,3.93,0,0,0,9,0ZM9,5.25a1.32,1.32,0,1,1,1.31-1.31h0A1.31,1.31,0,0,1,9,5.25ZM.63,6.75A1,1,0,0,0,0,7.68V15.5a.5.5,0,0,0,.5.5.43.43,0,0,0,.19,0L5,14V6.72a9.94,9.94,0,0,1-.66-1.45ZM9,11.24a1.51,1.51,0,0,1-1.14-.53C7.24,10,6.59,9.16,6,8.31V14l6,2V8.31a29.74,29.74,0,0,1-1.86,2.4A1.47,1.47,0,0,1,9,11.24ZM17.31,5,13,7v9l4.37-1.75a1,1,0,0,0,.63-.93V5.5a.5.5,0,0,0-.5-.5A.43.43,0,0,0,17.31,5Z" style="fill:#ccc"/></g></g></svg>